#!OML:ASF H:\Martial Arts Walks\Project 1\Capture day 1\Session 1\male.ASF
:FULLY-SPECIFIED
:DEGREES
2294
root -4.51685 10.5098 -32.9619 -149.47 75.2224 -156.155
lowerback 20.166 5.98179 3.58374
upperback -3.59907 8.74518 -1.34987
thorax -14.6547 3.58766 -6.3309
lowerneck -0.763984 12.826 4.14515
upperneck 8.27768 17.4354 -2.60799
head 3.46828 8.73457 -0.879082
rclavicle -2.44505e-014 -1.59028e-015
rhumerus -17.6264 58.9297 -84.5961
rradius 113.934
rwrist 13.1113
rhand -27.5471 -26.3448
rfingers 7.12502
rthumb -0.948458 -56.3224
lclavicle -2.44505e-014 -1.59028e-015
lhumerus -8.94135 17.3081 63.3405
lradius 111.805
lwrist 36.1015
lhand -33.1152 18.7118
lfingers 7.12502
lthumb -6.32545 48.5974
rfemur -49.9735 -46.0971 -8.8036
rtibia 103.11
rfoot -36.1797 -1.29023
rtoes -38.5966
lfemur -78.1225 38.5797 2.80066
ltibia 108.335
lfoot -37.1584 -12.2486
ltoes -21.8199
2295
root -4.51951 10.5017 -32.9643 -149.107 75.1875 -155.788
lowerback 20.1793 5.96709 3.65336
upperback -3.59848 8.75279 -1.28659
thorax -14.6615 3.58808 -6.30165
lowerneck -0.784749 12.8219 4.18493
upperneck 8.29842 17.437 -2.70045
head 3.49393 8.7332 -0.910344
rclavicle -9.96905e-014 -2.70347e-014
rhumerus -17.5456 58.9909 -84.4948
rradius 113.916
rwrist 13.0927
rhand -27.4776 -26.2881
rfingers 7.12502
rthumb -0.88138 -56.2661
lclavicle -9.96905e-014 -2.70347e-014
lhumerus -8.98046 17.3418 63.4091
lradius 111.829
lwrist 36.1424
lhand -33.1925 18.4723
lfingers 7.12502
lthumb -6.40004 48.3556
rfemur -50.026 -46.0698 -8.70308
rtibia 103.145
rfoot -36.185 -1.22543
rtoes -38.5178
lfemur -78.2164 38.6696 2.89476
ltibia 108.42
lfoot -37.1647 -12.3948
ltoes -21.6572
2296
root -4.52176 10.4953 -32.9665 -148.974 75.1469 -155.59
lowerback 20.272 5.94782 3.72093
upperback -3.58214 8.75323 -1.24326
thorax -14.6945 3.58202 -6.30134
lowerneck -0.812389 12.812 4.21564
upperneck 8.3266 17.4281 -2.75506
head 3.51789 8.72747 -0.928593
rclavicle -1.05952e-013 -1.23246e-014
rhumerus -17.5035 59.0102 -84.4142
rradius 113.92
rwrist 13.0844
rhand -27.4197 -26.2856
rfingers 7.12502
rthumb -0.825466 -56.2637
lclavicle -1.05952e-013 -1.23246e-014
lhumerus -8.9831 17.3391 63.4625
lradius 111.831
lwrist 36.0904
lhand -33.1841 18.2957
lfingers 7.12502
lthumb -6.3919 48.1792
rfemur -49.9548 -46.0353 -8.71172
rtibia 103.174
rfoot -36.1869 -1.31137
rtoes -38.5545
lfemur -78.2331 38.6896 2.98099
ltibia 108.49
lfoot -37.1705 -12.4822
ltoes -21.547
2297
root -4.52451 10.488 -32.9681 -148.803 75.1608 -155.395
lowerback 20.3424 5.93474 3.75333
upperback -3.58119 8.75116 -1.21194
thorax -14.7361 3.57656 -6.29306
lowerneck -0.805812 12.825 4.17928
upperneck 8.31651 17.4471 -2.76454
head 3.51116 8.73563 -0.926187
rclavicle -6.14245e-014 3.4191e-014
rhumerus -17.463 59.0619 -84.3615
rradius 113.922
rwrist 13.0553
rhand -27.3769 -26.0889
rfingers 7.12502
rthumb -0.784133 -56.0672
lclavicle -6.14245e-014 3.4191e-014
lhumerus -8.98525 17.3719 63.4653
lradius 111.817
lwrist 35.8874
lhand -33.0587 18.3182
lfingers 7.12502
lthumb -6.27084 48.2054
rfemur -50.0064 -45.9447 -8.67337
rtibia 103.22
rfoot -36.1627 -1.44953
rtoes -38.632
lfemur -78.2625 38.7855 3.0225
ltibia 108.563
lfoot -37.2216 -12.4284
ltoes -21.6193
2298
root -4.52691 10.4809 -32.9692 -148.802 75.1703 -155.382
lowerback 20.4097 5.94098 3.77776
upperback -3.58398 8.76929 -1.20637
thorax -14.7747 3.57969 -6.3153
lowerneck -0.823712 12.8441 4.10125
upperneck 8.31994 17.4698 -2.71059
head 3.50234 8.74606 -0.895998
rclavicle 9.651e-014 -5.96354e-015
rhumerus -17.4513 59.0416 -84.2991
rradius 113.931
rwrist 13.0017
rhand -27.3211 -26.0053
rfingers 7.12502
rthumb -0.730201 -55.9838
lclavicle 9.651e-014 -5.96354e-015
lhumerus -8.94322 17.3214 63.4985
lradius 111.781
lwrist 35.6835
lhand -32.9517 18.2554
lfingers 7.12502
lthumb -6.16754 48.1456
rfemur -50.0446 -45.9378 -8.69246
rtibia 103.277
rfoot -36.1583 -1.52749
rtoes -38.695
lfemur -78.3241 38.8199 3.01467
ltibia 108.623
lfoot -37.1988 -12.5495
ltoes -21.4619
2299
root -4.52907 10.4727 -32.9692 -149.005 75.2187 -155.595
lowerback 20.4477 5.96027 3.69668
upperback -3.58249 8.77463 -1.21068
thorax -14.8065 3.58637 -6.28289
lowerneck -0.825531 12.8155 4.09455
upperneck 8.2882 17.4311 -2.73552
head 3.49206 8.72579 -0.905881
rclavicle 3.05134e-014 -7.95139e-016
rhumerus -17.4669 59.0363 -84.229
rradius 113.96
rwrist 12.9687
rhand -27.3377 -25.9996
rfingers 7.12502
rthumb -0.74621 -55.9781
lclavicle 3.05134e-014 -7.95139e-016
lhumerus -8.92207 17.2745 63.555
lradius 111.737
lwrist 35.4167
lhand -32.9488 18.0356
lfingers 7.12502
lthumb -6.16481 47.9259
rfemur -50.1103 -45.9112 -8.79611
rtibia 103.344
rfoot -36.1452 -1.45566
rtoes -38.6191
lfemur -78.398 38.8726 2.89792
ltibia 108.687
lfoot -37.2438 -12.4318
ltoes -21.6932
2300
root -4.53102 10.4665 -32.9703 -149.016 75.2741 -155.61
lowerback 20.4796 5.95792 3.67025
upperback -3.57627 8.76419 -1.21946
thorax -14.8217 3.58215 -6.27923
lowerneck -0.809012 12.8431 4.07102
upperneck 8.22423 17.4632 -2.72075
head 3.46376 8.74142 -0.900252
rclavicle -1.15693e-013 8.34896e-015
rhumerus -17.3813 59.0993 -84.1797
rradius 113.924
rwrist 12.9574
rhand -27.3896 -25.9821
rfingers 7.12502
rthumb -0.796375 -55.9603
lclavicle -1.15693e-013 8.34896e-015
lhumerus -8.90196 17.2987 63.5419
lradius 111.727
lwrist 35.2881
lhand -32.8367 17.965
lfingers 7.12502
lthumb -6.05653 47.8585
rfemur -50.2049 -45.8731 -8.81176
rtibia 103.404
rfoot -36.1636 -1.44142
rtoes -38.6883
lfemur -78.4181 38.9203 2.88048
ltibia 108.738
lfoot -37.2482 -12.4778
ltoes -21.5999
